<svg xmlns="http://www.w3.org/2000/svg" xmlns:xlink="http://www.w3.org/1999/xlink" width="300" zoomAndPan="magnify" viewBox="0 0 224.87999 37.5" height="50" preserveAspectRatio="xMidYMid meet" version="1.0"><defs><clipPath id="2fd74e619d"><path d="M 1.421875 0 L 223.339844 0 L 223.339844 37.007812 L 1.421875 37.007812 Z M 1.421875 0 " clip-rule="nonzero"/></clipPath><clipPath id="fb29fc63a2"><path d="M 79.695312 0 L 144.824219 0 L 144.824219 37.007812 L 79.695312 37.007812 Z M 79.695312 0 " clip-rule="nonzero"/></clipPath></defs><g clip-path="url(#2fd74e619d)"><path fill="#000000" d="M 223.421875 46.3125 C 149.425781 46.3125 75.460938 46.3125 1.484375 46.3125 C 1.484375 27.816406 1.484375 9.320312 1.484375 -9.1875 C 75.488281 -9.1875 149.503906 -9.1875 223.515625 -9.1875 C 223.515625 9.230469 223.515625 27.648438 223.511719 46.070312 C 223.511719 46.148438 223.582031 46.261719 223.421875 46.3125 Z M 223.421875 46.3125 " fill-opacity="1" fill-rule="nonzero"/></g><g clip-path="url(#fb29fc63a2)"><path fill="#000000" d="M 79.695312 0 L 145.183594 0 L 145.183594 37.003906 L 79.695312 37.003906 Z M 79.695312 0 " fill-opacity="1" fill-rule="nonzero"/></g><path fill="#ffffff" d="M 106.863281 11.851562 C 108.492188 12.359375 109.070312 13.957031 108.21875 15.527344 C 107.925781 16.070312 107.515625 16.503906 107.003906 16.84375 C 106.808594 16.972656 106.761719 17.066406 106.957031 17.25 C 107.789062 18.03125 107.953125 19.035156 107.855469 20.109375 C 107.652344 22.382812 105.5625 23.925781 103.765625 24.164062 C 103.375 24.214844 102.976562 24.21875 102.589844 24.167969 C 101.929688 24.078125 101.398438 23.757812 101.046875 23.171875 C 100.992188 23.082031 100.9375 22.992188 100.84375 22.835938 C 100.699219 23.410156 100.574219 23.914062 100.445312 24.421875 C 100.234375 25.28125 100.019531 26.144531 99.804688 27.007812 C 99.746094 27.242188 99.632812 27.414062 99.363281 27.332031 C 99.105469 27.253906 99.136719 27.046875 99.191406 26.835938 C 99.597656 25.214844 99.996094 23.59375 100.402344 21.972656 C 100.910156 19.953125 101.398438 17.925781 101.945312 15.917969 C 102.277344 14.695312 102.886719 13.601562 103.808594 12.710938 C 104.660156 11.890625 105.660156 11.554688 106.863281 11.851562 M 103.484375 14.027344 C 103.035156 14.714844 102.6875 15.457031 102.484375 16.25 C 102.105469 17.703125 101.75 19.164062 101.394531 20.621094 C 101.300781 20.992188 101.25 21.367188 101.265625 21.753906 C 101.320312 22.871094 102.097656 23.664062 103.140625 23.625 C 104.066406 23.585938 104.835938 23.199219 105.441406 22.5 C 106.277344 21.527344 106.582031 20.363281 106.617188 19.121094 C 106.628906 18.621094 106.523438 18.132812 106.203125 17.710938 C 106.050781 17.511719 105.898438 17.4375 105.636719 17.511719 C 105.050781 17.679688 104.441406 17.664062 103.84375 17.574219 C 103.589844 17.535156 103.324219 17.46875 103.296875 17.140625 C 103.273438 16.84375 103.457031 16.636719 103.804688 16.539062 C 103.824219 16.53125 103.84375 16.527344 103.863281 16.523438 C 104.476562 16.414062 105.089844 16.382812 105.691406 16.566406 C 105.9375 16.640625 106.105469 16.59375 106.289062 16.429688 C 107.089844 15.71875 107.398438 14.78125 107.4375 13.761719 C 107.472656 12.96875 107.101562 12.515625 106.441406 12.378906 C 106.148438 12.320312 105.851562 12.332031 105.558594 12.394531 C 104.613281 12.59375 104.015625 13.234375 103.484375 14.027344 Z M 103.484375 14.027344 " fill-opacity="1" fill-rule="nonzero"/><path fill="#ffffff" d="M 129.984375 22.679688 C 129.984375 21.265625 129.988281 19.875 129.988281 18.488281 C 129.988281 18.234375 129.972656 17.980469 129.902344 17.734375 C 129.707031 17.054688 129.21875 16.753906 128.523438 16.890625 C 127.707031 17.050781 127.207031 17.578125 126.902344 18.316406 C 126.753906 18.667969 126.6875 19.042969 126.6875 19.429688 C 126.695312 20.46875 126.691406 21.507812 126.691406 22.546875 C 126.691406 23.105469 126.726562 23.144531 127.285156 23.226562 C 127.398438 23.242188 127.515625 23.257812 127.632812 23.25 C 127.894531 23.230469 127.976562 23.34375 127.980469 23.601562 C 127.988281 23.890625 127.898438 24.011719 127.601562 23.988281 C 126.511719 23.898438 125.421875 23.945312 124.332031 23.988281 C 124.070312 23.996094 123.941406 23.921875 123.941406 23.632812 C 123.9375 23.34375 124.046875 23.230469 124.335938 23.25 C 124.480469 23.257812 124.628906 23.230469 124.777344 23.210938 C 125.21875 23.152344 125.265625 23.113281 125.265625 22.683594 C 125.269531 21.082031 125.273438 19.480469 125.265625 17.882812 C 125.265625 17.398438 125.164062 17.304688 124.671875 17.246094 C 124.554688 17.230469 124.441406 17.191406 124.328125 17.199219 C 124.035156 17.21875 123.929688 17.105469 123.941406 16.8125 C 123.949219 16.527344 124.082031 16.457031 124.335938 16.445312 C 124.980469 16.414062 125.625 16.371094 126.269531 16.3125 C 126.511719 16.289062 126.585938 16.371094 126.574219 16.605469 C 126.558594 16.945312 126.570312 17.28125 126.570312 17.703125 C 126.703125 17.527344 126.789062 17.414062 126.875 17.300781 C 127.425781 16.578125 128.171875 16.273438 129.0625 16.304688 C 129.324219 16.3125 129.589844 16.324219 129.851562 16.386719 C 130.773438 16.609375 131.253906 17.171875 131.34375 18.121094 C 131.429688 19.074219 131.394531 20.027344 131.402344 20.980469 C 131.40625 21.59375 131.40625 22.210938 131.402344 22.824219 C 131.402344 23.054688 131.484375 23.175781 131.726562 23.203125 C 131.980469 23.230469 132.230469 23.261719 132.488281 23.253906 C 132.738281 23.25 132.742188 23.417969 132.738281 23.601562 C 132.734375 23.78125 132.769531 23.988281 132.488281 23.980469 C 132.046875 23.96875 131.601562 23.9375 131.15625 23.9375 C 130.457031 23.941406 129.757812 23.960938 129.0625 23.988281 C 128.78125 24 128.695312 23.890625 128.691406 23.617188 C 128.6875 23.339844 128.785156 23.230469 129.058594 23.25 C 129.203125 23.257812 129.355469 23.210938 129.5 23.214844 C 129.855469 23.226562 130.003906 23.054688 129.984375 22.679688 Z M 129.984375 22.679688 " fill-opacity="1" fill-rule="nonzero"/><path fill="#ffffff" d="M 97.175781 22.882812 C 97.289062 22.652344 97.449219 22.542969 97.675781 22.660156 C 97.902344 22.777344 97.839844 22.988281 97.753906 23.160156 C 97.464844 23.761719 96.96875 24.117188 96.316406 24.164062 C 95.667969 24.207031 95.179688 23.886719 94.875 23.308594 C 94.800781 23.167969 94.773438 23.003906 94.636719 22.863281 C 94.394531 23.023438 94.15625 23.195312 93.90625 23.34375 C 93.058594 23.855469 92.148438 24.179688 91.144531 24.175781 C 89.25 24.160156 88.148438 22.675781 88.3125 20.941406 C 88.503906 18.886719 89.640625 17.488281 91.449219 16.601562 C 92.109375 16.277344 92.832031 16.21875 93.558594 16.351562 C 94.730469 16.570312 95.535156 17.449219 95.800781 18.738281 C 95.921875 19.320312 95.9375 19.90625 95.925781 20.558594 C 96.113281 20.382812 96.203125 20.214844 96.296875 20.054688 C 96.71875 19.367188 97.035156 18.628906 97.28125 17.859375 C 97.34375 17.667969 97.40625 17.476562 97.519531 17.304688 C 97.601562 17.183594 97.703125 17.09375 97.863281 17.152344 C 98.019531 17.210938 98.058594 17.339844 98.027344 17.488281 C 97.984375 17.675781 97.945312 17.863281 97.878906 18.039062 C 97.449219 19.21875 96.949219 20.359375 96.144531 21.339844 C 95.789062 21.769531 95.949219 22.269531 95.953125 22.746094 C 95.957031 22.921875 96.015625 23.101562 96.066406 23.269531 C 96.160156 23.589844 96.355469 23.660156 96.652344 23.496094 C 96.890625 23.359375 97.039062 23.140625 97.175781 22.882812 M 89.945312 20.578125 C 89.800781 21.253906 89.667969 21.925781 89.867188 22.617188 C 90.050781 23.25 90.425781 23.550781 91.078125 23.578125 C 92.390625 23.636719 93.453125 23.070312 94.429688 22.273438 C 94.519531 22.199219 94.554688 22.109375 94.554688 21.996094 C 94.539062 20.84375 94.570312 19.691406 94.429688 18.542969 C 94.382812 18.132812 94.222656 17.769531 94.011719 17.421875 C 93.785156 17.054688 93.449219 16.882812 93.03125 16.871094 C 92.234375 16.851562 91.640625 17.238281 91.140625 17.820312 C 90.472656 18.601562 90.195312 19.554688 89.945312 20.578125 Z M 89.945312 20.578125 " fill-opacity="1" fill-rule="nonzero"/><path fill="#ffffff" d="M 140.769531 22.777344 C 140.777344 22.378906 140.789062 22.007812 140.785156 21.636719 C 140.777344 21.386719 140.910156 21.34375 141.121094 21.339844 C 141.335938 21.335938 141.4375 21.410156 141.4375 21.628906 C 141.4375 22.0625 141.445312 22.496094 141.339844 22.921875 C 141.175781 23.597656 140.734375 24 140.039062 24.082031 C 139.484375 24.148438 138.964844 23.828125 138.671875 23.246094 C 138.640625 23.179688 138.609375 23.113281 138.578125 23.054688 C 138.480469 23.035156 138.453125 23.109375 138.421875 23.152344 C 137.808594 24.050781 136.910156 24.253906 135.90625 24.15625 C 135.292969 24.09375 134.699219 23.929688 134.203125 23.527344 C 133.390625 22.875 133.359375 21.617188 134.148438 20.792969 C 134.835938 20.074219 135.726562 19.746094 136.679688 19.570312 C 137.144531 19.484375 137.621094 19.4375 138.09375 19.378906 C 138.226562 19.363281 138.355469 19.355469 138.363281 19.179688 C 138.398438 18.441406 138.304688 17.742188 137.742188 17.1875 C 137.121094 16.585938 135.675781 16.660156 135.175781 17.34375 C 135.699219 17.523438 135.902344 17.890625 135.800781 18.425781 C 135.722656 18.84375 135.507812 19.0625 135.117188 19.09375 C 134.550781 19.136719 134.226562 18.972656 134.097656 18.542969 C 133.925781 17.957031 134.128906 17.441406 134.523438 17.027344 C 135.835938 15.652344 138.691406 16.027344 139.496094 17.710938 C 139.675781 18.089844 139.742188 18.496094 139.742188 18.914062 C 139.742188 20.046875 139.746094 21.179688 139.75 22.3125 C 139.753906 22.5 139.765625 22.695312 139.808594 22.878906 C 139.867188 23.117188 139.988281 23.320312 140.273438 23.328125 C 140.539062 23.335938 140.664062 23.160156 140.726562 22.925781 C 140.738281 22.882812 140.75 22.84375 140.769531 22.777344 M 136.730469 23.570312 C 137.648438 23.4375 138.320312 22.699219 138.359375 21.773438 C 138.375 21.359375 138.375 20.949219 138.375 20.535156 C 138.378906 19.898438 138.375 19.894531 137.738281 19.996094 C 136.921875 20.125 136.136719 20.347656 135.566406 21 C 135.113281 21.519531 134.929688 22.140625 135.214844 22.796875 C 135.484375 23.414062 136.019531 23.632812 136.730469 23.570312 Z M 136.730469 23.570312 " fill-opacity="1" fill-rule="nonzero"/><path fill="#ffffff" d="M 115.671875 18.058594 C 115.671875 16.597656 115.675781 15.167969 115.671875 13.738281 C 115.667969 13.015625 115.550781 12.898438 114.820312 12.863281 C 114.382812 12.839844 114.371094 12.824219 114.386719 12.40625 C 114.394531 12.207031 114.472656 12.128906 114.671875 12.117188 C 115.34375 12.070312 116.019531 12.015625 116.691406 11.949219 C 116.933594 11.925781 116.980469 12.042969 116.980469 12.246094 C 116.976562 12.890625 116.980469 13.539062 116.980469 14.183594 C 116.980469 16.796875 116.980469 19.414062 116.980469 22.027344 C 116.980469 22.09375 116.980469 22.15625 116.980469 22.21875 C 116.984375 23.183594 116.984375 23.195312 117.925781 23.203125 C 118.25 23.207031 118.304688 23.355469 118.308594 23.636719 C 118.316406 23.929688 118.1875 23.996094 117.925781 23.988281 C 116.867188 23.953125 115.808594 23.957031 114.75 23.988281 C 114.542969 23.992188 114.371094 23.976562 114.386719 23.691406 C 114.398438 23.457031 114.347656 23.203125 114.71875 23.222656 C 114.886719 23.234375 115.054688 23.199219 115.222656 23.203125 C 115.53125 23.207031 115.667969 23.0625 115.664062 22.757812 C 115.660156 22.21875 115.671875 21.679688 115.671875 21.140625 C 115.671875 20.121094 115.671875 19.105469 115.671875 18.058594 Z M 115.671875 18.058594 " fill-opacity="1" fill-rule="nonzero"/><path fill="#ffffff" d="M 84.980469 10.980469 C 85.5625 10.980469 86.113281 10.976562 86.664062 10.980469 C 87.023438 10.984375 87.15625 11.105469 87.15625 11.410156 C 87.152344 11.722656 87.023438 11.847656 86.675781 11.851562 C 86.378906 11.855469 86.082031 11.859375 85.785156 11.851562 C 85.582031 11.84375 85.492188 11.925781 85.5 12.128906 C 85.507812 12.320312 85.5 12.511719 85.5 12.703125 C 85.5 17.425781 85.5 22.152344 85.5 26.878906 C 85.5 27.398438 85.5 27.398438 86.027344 27.394531 C 86.25 27.394531 86.472656 27.382812 86.691406 27.402344 C 87 27.421875 87.164062 27.609375 87.152344 27.898438 C 87.140625 28.191406 86.957031 28.300781 86.691406 28.304688 C 86.105469 28.308594 85.523438 28.300781 84.941406 28.3125 C 84.703125 28.3125 84.628906 28.207031 84.632812 27.980469 C 84.644531 27.609375 84.636719 27.238281 84.636719 26.867188 C 84.636719 21.71875 84.636719 16.570312 84.636719 11.417969 C 84.636719 11.199219 84.585938 10.941406 84.980469 10.980469 Z M 84.980469 10.980469 " fill-opacity="1" fill-rule="nonzero"/><path fill="#ffffff" d="M 111.921875 25.371094 C 111.914062 26.28125 111.902344 27.160156 111.898438 28.039062 C 111.898438 28.222656 111.847656 28.3125 111.648438 28.308594 C 111.066406 28.300781 110.484375 28.316406 109.902344 28.296875 C 109.511719 28.285156 109.371094 28.097656 109.429688 27.753906 C 109.472656 27.492188 109.644531 27.40625 109.882812 27.402344 C 110.1875 27.394531 110.496094 27.390625 110.804688 27.394531 C 111.003906 27.398438 111.097656 27.3125 111.082031 27.109375 C 111.074219 27.046875 111.082031 26.980469 111.082031 26.917969 C 111.082031 22.046875 111.082031 17.171875 111.082031 12.300781 C 111.082031 11.855469 111.082031 11.855469 110.621094 11.851562 C 110.355469 11.851562 110.089844 11.851562 109.824219 11.847656 C 109.566406 11.847656 109.433594 11.71875 109.425781 11.460938 C 109.417969 11.1875 109.511719 10.996094 109.808594 10.984375 C 110.421875 10.964844 111.039062 10.957031 111.652344 10.945312 C 111.871094 10.941406 111.90625 11.082031 111.90625 11.261719 C 111.910156 13.125 111.921875 14.988281 111.921875 16.851562 C 111.925781 19.683594 111.921875 22.511719 111.921875 25.371094 Z M 111.921875 25.371094 " fill-opacity="1" fill-rule="nonzero"/><path fill="#ffffff" d="M 120.296875 17.316406 C 120.042969 17.179688 119.785156 17.183594 119.53125 17.175781 C 119.371094 17.171875 119.25 17.117188 119.28125 16.933594 C 119.3125 16.753906 119.15625 16.46875 119.5 16.4375 C 120.1875 16.371094 120.871094 16.320312 121.554688 16.261719 C 121.789062 16.242188 121.800781 16.402344 121.800781 16.574219 C 121.800781 17.292969 121.800781 18.015625 121.800781 18.734375 C 121.800781 20.035156 121.800781 21.335938 121.804688 22.640625 C 121.804688 23.128906 121.867188 23.1875 122.347656 23.203125 C 122.402344 23.207031 122.453125 23.207031 122.507812 23.207031 C 122.917969 23.214844 123.074219 23.449219 122.941406 23.847656 C 122.894531 23.980469 122.792969 23.984375 122.6875 23.984375 C 122.445312 23.980469 122.199219 23.988281 121.957031 23.964844 C 121.164062 23.886719 120.371094 23.980469 119.578125 23.988281 C 119.363281 23.988281 119.171875 23.988281 119.171875 23.6875 C 119.171875 23.433594 119.183594 23.214844 119.527344 23.226562 C 119.671875 23.234375 119.820312 23.210938 119.96875 23.203125 C 120.367188 23.183594 120.472656 23.09375 120.484375 22.683594 C 120.5 22.210938 120.492188 21.734375 120.492188 21.257812 C 120.492188 20.167969 120.492188 19.074219 120.492188 17.984375 C 120.492188 17.753906 120.496094 17.515625 120.296875 17.316406 Z M 120.296875 17.316406 " fill-opacity="1" fill-rule="nonzero"/><path fill="#ffffff" d="M 121.683594 14.339844 C 121.257812 14.648438 120.820312 14.660156 120.464844 14.390625 C 120.109375 14.125 119.96875 13.632812 120.128906 13.226562 C 120.289062 12.820312 120.722656 12.539062 121.125 12.578125 C 121.566406 12.625 121.945312 12.96875 122.019531 13.402344 C 122.085938 13.765625 121.960938 14.070312 121.683594 14.339844 Z M 121.683594 14.339844 " fill-opacity="1" fill-rule="nonzero"/></svg>