<svg xmlns="http://www.w3.org/2000/svg" xmlns:xlink="http://www.w3.org/1999/xlink" width="300" zoomAndPan="magnify" viewBox="0 0 224.87999 37.5" height="50" preserveAspectRatio="xMidYMid meet" version="1.0"><defs><clipPath id="7d4caccbe6"><path d="M 1.421875 0 L 223.339844 0 L 223.339844 37.007812 L 1.421875 37.007812 Z M 1.421875 0 " clip-rule="nonzero"/></clipPath><clipPath id="007fb98d6a"><path d="M 79.695312 0 L 144.824219 0 L 144.824219 37.007812 L 79.695312 37.007812 Z M 79.695312 0 " clip-rule="nonzero"/></clipPath></defs><g clip-path="url(#7d4caccbe6)"><path fill="#061927" d="M 223.421875 46.3125 C 149.425781 46.3125 75.460938 46.3125 1.484375 46.3125 C 1.484375 27.816406 1.484375 9.320312 1.484375 -9.1875 C 75.488281 -9.1875 149.503906 -9.1875 223.515625 -9.1875 C 223.515625 9.230469 223.515625 27.648438 223.511719 46.070312 C 223.511719 46.148438 223.582031 46.261719 223.421875 46.3125 Z M 223.421875 46.3125 " fill-opacity="1" fill-rule="nonzero"/></g><g clip-path="url(#007fb98d6a)"><path fill="#061927" d="M 79.695312 0 L 144.824219 0 L 144.824219 37.003906 L 79.695312 37.003906 Z M 79.695312 0 " fill-opacity="1" fill-rule="nonzero"/></g><path fill="#ffffff" d="M 106.714844 11.851562 C 108.332031 12.359375 108.910156 13.957031 108.0625 15.527344 C 107.769531 16.070312 107.363281 16.503906 106.855469 16.84375 C 106.660156 16.972656 106.613281 17.066406 106.804688 17.25 C 107.636719 18.03125 107.796875 19.035156 107.703125 20.109375 C 107.5 22.382812 105.421875 23.925781 103.632812 24.164062 C 103.246094 24.214844 102.851562 24.21875 102.464844 24.167969 C 101.804688 24.078125 101.277344 23.757812 100.929688 23.171875 C 100.875 23.082031 100.820312 22.992188 100.726562 22.835938 C 100.585938 23.410156 100.457031 23.914062 100.332031 24.421875 C 100.121094 25.28125 99.90625 26.144531 99.695312 27.007812 C 99.636719 27.242188 99.523438 27.414062 99.257812 27.332031 C 99 27.253906 99.03125 27.046875 99.082031 26.835938 C 99.488281 25.214844 99.886719 23.59375 100.289062 21.972656 C 100.796875 19.953125 101.277344 17.925781 101.824219 15.917969 C 102.15625 14.695312 102.757812 13.601562 103.675781 12.710938 C 104.523438 11.890625 105.519531 11.554688 106.714844 11.851562 M 103.351562 14.027344 C 102.90625 14.714844 102.5625 15.457031 102.359375 16.25 C 101.984375 17.703125 101.632812 19.164062 101.273438 20.621094 C 101.183594 20.992188 101.132812 21.367188 101.148438 21.753906 C 101.199219 22.871094 101.976562 23.664062 103.011719 23.625 C 103.933594 23.585938 104.699219 23.199219 105.300781 22.5 C 106.132812 21.527344 106.4375 20.363281 106.46875 19.121094 C 106.484375 18.621094 106.375 18.132812 106.058594 17.710938 C 105.90625 17.511719 105.757812 17.4375 105.496094 17.511719 C 104.910156 17.679688 104.308594 17.664062 103.710938 17.574219 C 103.457031 17.535156 103.195312 17.46875 103.167969 17.140625 C 103.144531 16.84375 103.328125 16.636719 103.671875 16.539062 C 103.691406 16.53125 103.710938 16.527344 103.734375 16.523438 C 104.339844 16.414062 104.949219 16.382812 105.546875 16.566406 C 105.792969 16.640625 105.960938 16.59375 106.144531 16.429688 C 106.941406 15.71875 107.246094 14.78125 107.289062 13.761719 C 107.320312 12.96875 106.953125 12.515625 106.292969 12.378906 C 106.003906 12.320312 105.707031 12.332031 105.414062 12.394531 C 104.480469 12.59375 103.882812 13.234375 103.351562 14.027344 Z M 103.351562 14.027344 " fill-opacity="1" fill-rule="nonzero"/><path fill="#ffffff" d="M 129.707031 22.679688 C 129.710938 21.265625 129.714844 19.875 129.710938 18.488281 C 129.710938 18.234375 129.699219 17.980469 129.628906 17.734375 C 129.433594 17.054688 128.945312 16.753906 128.253906 16.890625 C 127.445312 17.050781 126.945312 17.578125 126.644531 18.316406 C 126.496094 18.667969 126.429688 19.042969 126.429688 19.429688 C 126.4375 20.46875 126.433594 21.507812 126.433594 22.546875 C 126.433594 23.105469 126.46875 23.144531 127.023438 23.226562 C 127.136719 23.242188 127.253906 23.257812 127.371094 23.25 C 127.632812 23.230469 127.710938 23.34375 127.71875 23.601562 C 127.722656 23.890625 127.632812 24.011719 127.339844 23.988281 C 126.253906 23.898438 125.171875 23.945312 124.085938 23.988281 C 123.828125 23.996094 123.699219 23.921875 123.699219 23.632812 C 123.695312 23.34375 123.804688 23.230469 124.089844 23.25 C 124.234375 23.257812 124.382812 23.230469 124.53125 23.210938 C 124.972656 23.152344 125.015625 23.113281 125.015625 22.683594 C 125.023438 21.082031 125.023438 19.480469 125.015625 17.882812 C 125.015625 17.398438 124.914062 17.304688 124.425781 17.246094 C 124.308594 17.230469 124.195312 17.191406 124.082031 17.199219 C 123.792969 17.21875 123.6875 17.105469 123.699219 16.8125 C 123.707031 16.527344 123.839844 16.457031 124.089844 16.445312 C 124.734375 16.414062 125.375 16.371094 126.011719 16.3125 C 126.257812 16.289062 126.332031 16.371094 126.320312 16.605469 C 126.304688 16.945312 126.316406 17.28125 126.316406 17.703125 C 126.445312 17.527344 126.53125 17.414062 126.617188 17.300781 C 127.164062 16.578125 127.90625 16.273438 128.792969 16.304688 C 129.054688 16.3125 129.316406 16.324219 129.578125 16.386719 C 130.496094 16.609375 130.972656 17.171875 131.058594 18.121094 C 131.148438 19.074219 131.113281 20.027344 131.117188 20.980469 C 131.121094 21.59375 131.125 22.210938 131.117188 22.824219 C 131.117188 23.054688 131.203125 23.175781 131.441406 23.203125 C 131.695312 23.230469 131.945312 23.261719 132.199219 23.253906 C 132.445312 23.25 132.453125 23.417969 132.449219 23.601562 C 132.445312 23.78125 132.476562 23.988281 132.203125 23.980469 C 131.757812 23.96875 131.316406 23.9375 130.875 23.9375 C 130.179688 23.941406 129.484375 23.960938 128.789062 23.988281 C 128.515625 24 128.425781 23.890625 128.421875 23.617188 C 128.417969 23.339844 128.515625 23.230469 128.789062 23.25 C 128.933594 23.257812 129.082031 23.210938 129.226562 23.214844 C 129.582031 23.226562 129.730469 23.054688 129.707031 22.679688 Z M 129.707031 22.679688 " fill-opacity="1" fill-rule="nonzero"/><path fill="#ffffff" d="M 97.078125 22.882812 C 97.195312 22.652344 97.351562 22.542969 97.574219 22.660156 C 97.804688 22.777344 97.738281 22.988281 97.65625 23.160156 C 97.371094 23.761719 96.875 24.117188 96.226562 24.164062 C 95.578125 24.207031 95.097656 23.886719 94.792969 23.308594 C 94.71875 23.167969 94.6875 23.003906 94.554688 22.863281 C 94.3125 23.023438 94.078125 23.195312 93.828125 23.34375 C 92.984375 23.855469 92.082031 24.179688 91.082031 24.175781 C 89.199219 24.160156 88.101562 22.675781 88.265625 20.941406 C 88.457031 18.886719 89.585938 17.488281 91.382812 16.601562 C 92.039062 16.277344 92.761719 16.21875 93.480469 16.351562 C 94.648438 16.570312 95.449219 17.449219 95.714844 18.738281 C 95.832031 19.320312 95.847656 19.90625 95.835938 20.558594 C 96.023438 20.382812 96.113281 20.214844 96.207031 20.054688 C 96.625 19.367188 96.941406 18.628906 97.183594 17.859375 C 97.246094 17.667969 97.308594 17.476562 97.421875 17.304688 C 97.503906 17.183594 97.605469 17.09375 97.761719 17.152344 C 97.917969 17.210938 97.957031 17.339844 97.925781 17.488281 C 97.886719 17.675781 97.84375 17.863281 97.78125 18.039062 C 97.351562 19.21875 96.855469 20.359375 96.054688 21.339844 C 95.703125 21.769531 95.859375 22.269531 95.863281 22.746094 C 95.867188 22.921875 95.925781 23.101562 95.976562 23.269531 C 96.070312 23.589844 96.265625 23.660156 96.558594 23.496094 C 96.796875 23.359375 96.941406 23.140625 97.078125 22.882812 M 89.890625 20.578125 C 89.746094 21.253906 89.613281 21.925781 89.8125 22.617188 C 89.992188 23.25 90.367188 23.550781 91.015625 23.578125 C 92.320312 23.636719 93.378906 23.070312 94.351562 22.273438 C 94.4375 22.199219 94.476562 22.109375 94.472656 21.996094 C 94.460938 20.84375 94.488281 19.691406 94.351562 18.542969 C 94.300781 18.132812 94.144531 17.769531 93.933594 17.421875 C 93.707031 17.054688 93.371094 16.882812 92.957031 16.871094 C 92.167969 16.851562 91.574219 17.238281 91.078125 17.820312 C 90.414062 18.601562 90.136719 19.554688 89.890625 20.578125 Z M 89.890625 20.578125 " fill-opacity="1" fill-rule="nonzero"/><path fill="#ffffff" d="M 140.433594 22.777344 C 140.441406 22.378906 140.457031 22.007812 140.449219 21.636719 C 140.445312 21.386719 140.574219 21.34375 140.785156 21.339844 C 140.996094 21.335938 141.097656 21.410156 141.097656 21.628906 C 141.101562 22.0625 141.105469 22.496094 141.003906 22.921875 C 140.839844 23.597656 140.398438 24 139.710938 24.082031 C 139.15625 24.148438 138.640625 23.828125 138.347656 23.246094 C 138.316406 23.179688 138.285156 23.113281 138.257812 23.054688 C 138.160156 23.035156 138.132812 23.109375 138.101562 23.152344 C 137.488281 24.050781 136.597656 24.253906 135.601562 24.15625 C 134.988281 24.09375 134.398438 23.929688 133.902344 23.527344 C 133.097656 22.875 133.066406 21.617188 133.851562 20.792969 C 134.535156 20.074219 135.417969 19.746094 136.367188 19.570312 C 136.832031 19.484375 137.304688 19.4375 137.773438 19.378906 C 137.90625 19.363281 138.035156 19.355469 138.042969 19.179688 C 138.078125 18.441406 137.984375 17.742188 137.421875 17.1875 C 136.808594 16.585938 135.371094 16.660156 134.871094 17.34375 C 135.390625 17.523438 135.59375 17.890625 135.492188 18.425781 C 135.417969 18.84375 135.199219 19.0625 134.8125 19.09375 C 134.25 19.136719 133.925781 18.972656 133.800781 18.542969 C 133.628906 17.957031 133.832031 17.441406 134.222656 17.027344 C 135.527344 15.652344 138.371094 16.027344 139.167969 17.710938 C 139.347656 18.089844 139.414062 18.496094 139.414062 18.914062 C 139.414062 20.046875 139.414062 21.179688 139.421875 22.3125 C 139.425781 22.5 139.4375 22.695312 139.480469 22.878906 C 139.535156 23.117188 139.660156 23.320312 139.941406 23.328125 C 140.207031 23.335938 140.328125 23.160156 140.390625 22.925781 C 140.402344 22.882812 140.417969 22.84375 140.433594 22.777344 M 136.417969 23.570312 C 137.332031 23.4375 138 22.699219 138.035156 21.773438 C 138.054688 21.359375 138.054688 20.949219 138.054688 20.535156 C 138.054688 19.898438 138.054688 19.894531 137.421875 19.996094 C 136.609375 20.125 135.828125 20.347656 135.261719 21 C 134.808594 21.519531 134.628906 22.140625 134.910156 22.796875 C 135.179688 23.414062 135.710938 23.632812 136.417969 23.570312 Z M 136.417969 23.570312 " fill-opacity="1" fill-rule="nonzero"/><path fill="#ffffff" d="M 115.476562 18.058594 C 115.476562 16.597656 115.476562 15.167969 115.472656 13.738281 C 115.472656 13.015625 115.355469 12.898438 114.628906 12.863281 C 114.191406 12.839844 114.183594 12.824219 114.195312 12.40625 C 114.203125 12.207031 114.28125 12.128906 114.480469 12.117188 C 115.152344 12.070312 115.820312 12.015625 116.492188 11.949219 C 116.730469 11.925781 116.777344 12.042969 116.777344 12.246094 C 116.773438 12.890625 116.773438 13.539062 116.773438 14.183594 C 116.773438 16.796875 116.773438 19.414062 116.773438 22.027344 C 116.773438 22.09375 116.773438 22.15625 116.777344 22.21875 C 116.78125 23.183594 116.78125 23.195312 117.714844 23.203125 C 118.039062 23.207031 118.09375 23.355469 118.097656 23.636719 C 118.105469 23.929688 117.976562 23.996094 117.71875 23.988281 C 116.664062 23.953125 115.613281 23.957031 114.558594 23.988281 C 114.351562 23.992188 114.179688 23.976562 114.195312 23.691406 C 114.207031 23.457031 114.15625 23.203125 114.527344 23.222656 C 114.691406 23.234375 114.863281 23.199219 115.03125 23.203125 C 115.335938 23.207031 115.46875 23.0625 115.46875 22.757812 C 115.464844 22.21875 115.472656 21.679688 115.476562 21.140625 C 115.476562 20.121094 115.476562 19.105469 115.476562 18.058594 Z M 115.476562 18.058594 " fill-opacity="1" fill-rule="nonzero"/><path fill="#ffffff" d="M 84.953125 10.980469 C 85.53125 10.980469 86.078125 10.976562 86.625 10.980469 C 86.984375 10.984375 87.117188 11.105469 87.113281 11.410156 C 87.113281 11.722656 86.984375 11.847656 86.636719 11.851562 C 86.34375 11.855469 86.046875 11.859375 85.753906 11.851562 C 85.550781 11.84375 85.460938 11.925781 85.46875 12.128906 C 85.476562 12.320312 85.46875 12.511719 85.46875 12.703125 C 85.46875 17.425781 85.46875 22.152344 85.46875 26.878906 C 85.46875 27.398438 85.46875 27.398438 85.992188 27.394531 C 86.210938 27.394531 86.433594 27.382812 86.65625 27.402344 C 86.960938 27.421875 87.125 27.609375 87.113281 27.898438 C 87.101562 28.191406 86.917969 28.300781 86.652344 28.304688 C 86.070312 28.308594 85.492188 28.300781 84.914062 28.3125 C 84.675781 28.3125 84.601562 28.207031 84.605469 27.980469 C 84.617188 27.609375 84.609375 27.238281 84.609375 26.867188 C 84.609375 21.71875 84.609375 16.570312 84.609375 11.417969 C 84.609375 11.199219 84.558594 10.941406 84.953125 10.980469 Z M 84.953125 10.980469 " fill-opacity="1" fill-rule="nonzero"/><path fill="#ffffff" d="M 111.746094 25.371094 C 111.738281 26.28125 111.726562 27.160156 111.722656 28.039062 C 111.722656 28.222656 111.671875 28.3125 111.472656 28.308594 C 110.894531 28.300781 110.316406 28.316406 109.734375 28.296875 C 109.347656 28.285156 109.207031 28.097656 109.265625 27.753906 C 109.308594 27.492188 109.480469 27.40625 109.714844 27.402344 C 110.023438 27.394531 110.328125 27.390625 110.632812 27.394531 C 110.832031 27.398438 110.925781 27.3125 110.910156 27.109375 C 110.90625 27.046875 110.910156 26.980469 110.910156 26.917969 C 110.910156 22.046875 110.910156 17.171875 110.910156 12.300781 C 110.910156 11.855469 110.910156 11.855469 110.449219 11.851562 C 110.1875 11.851562 109.921875 11.851562 109.660156 11.847656 C 109.40625 11.847656 109.273438 11.71875 109.261719 11.460938 C 109.253906 11.1875 109.351562 10.996094 109.644531 10.984375 C 110.253906 10.964844 110.867188 10.957031 111.476562 10.945312 C 111.695312 10.941406 111.730469 11.082031 111.730469 11.261719 C 111.734375 13.125 111.746094 14.988281 111.746094 16.851562 C 111.75 19.683594 111.746094 22.511719 111.746094 25.371094 Z M 111.746094 25.371094 " fill-opacity="1" fill-rule="nonzero"/><path fill="#ffffff" d="M 120.074219 17.316406 C 119.820312 17.179688 119.566406 17.183594 119.316406 17.175781 C 119.15625 17.171875 119.035156 17.117188 119.066406 16.933594 C 119.097656 16.753906 118.941406 16.46875 119.285156 16.4375 C 119.964844 16.371094 120.644531 16.320312 121.328125 16.261719 C 121.558594 16.242188 121.570312 16.402344 121.570312 16.574219 C 121.570312 17.292969 121.570312 18.015625 121.570312 18.734375 C 121.570312 20.035156 121.570312 21.335938 121.574219 22.640625 C 121.574219 23.128906 121.636719 23.1875 122.117188 23.203125 C 122.167969 23.207031 122.222656 23.207031 122.273438 23.207031 C 122.683594 23.214844 122.835938 23.449219 122.703125 23.847656 C 122.660156 23.980469 122.558594 23.984375 122.453125 23.984375 C 122.210938 23.980469 121.964844 23.988281 121.726562 23.964844 C 120.9375 23.886719 120.148438 23.980469 119.359375 23.988281 C 119.144531 23.988281 118.953125 23.988281 118.957031 23.6875 C 118.957031 23.433594 118.96875 23.214844 119.308594 23.226562 C 119.453125 23.234375 119.601562 23.210938 119.75 23.203125 C 120.144531 23.183594 120.25 23.09375 120.261719 22.683594 C 120.277344 22.210938 120.269531 21.734375 120.269531 21.257812 C 120.269531 20.167969 120.269531 19.074219 120.269531 17.984375 C 120.265625 17.753906 120.269531 17.515625 120.074219 17.316406 Z M 120.074219 17.316406 " fill-opacity="1" fill-rule="nonzero"/><path fill="#ffffff" d="M 121.453125 14.339844 C 121.03125 14.648438 120.59375 14.660156 120.238281 14.390625 C 119.890625 14.125 119.75 13.632812 119.910156 13.226562 C 120.070312 12.820312 120.5 12.539062 120.898438 12.578125 C 121.335938 12.625 121.710938 12.96875 121.789062 13.402344 C 121.851562 13.765625 121.730469 14.070312 121.453125 14.339844 Z M 121.453125 14.339844 " fill-opacity="1" fill-rule="nonzero"/></svg>